<?xml version="1.0" encoding="iso-8859-1"?>
<!-- Generator: Adobe Illustrator 16.0.0, SVG Export Plug-In . SVG Version: 6.00 Build 0)  -->
<!DOCTYPE svg PUBLIC "-//W3C//DTD SVG 1.1//EN" "http://www.w3.org/Graphics/SVG/1.1/DTD/svg11.dtd">
<svg version="1.1" id="Capa_1" xmlns="http://www.w3.org/2000/svg" xmlns:xlink="http://www.w3.org/1999/xlink" x="0px" y="0px"
	 width="333.825px" height="333.825px" viewBox="0 0 333.825 333.825" style="enable-background:new 0 0 333.825 333.825;"
	 xml:space="preserve">
<g>
	<g>
		<g>
			<path d="M105.195,137.576c-10.851,0-19.675,8.812-19.675,19.639c0,10.842,8.821,19.645,19.675,19.645
				c10.835,0,19.633-8.803,19.633-19.645C124.837,146.388,116.031,137.576,105.195,137.576z"/>
		</g>
		<g>
			<path d="M230.891,80.299h-1.333l-1.219,0.588c-21.485,10.635-38.972,15.553-56.292,15.946c-0.571-7.317-0.664-21.404,5.86-30.535
				c3.233-4.527,7.689-7.185,13.598-8.148c2.685-0.429,5.416-0.855,8.137-1.272c30.354-4.681,64.737-9.998,73.648-39.112
				l-11.024-3.372c-6.792,22.2-36.059,26.719-64.384,31.096c-2.762,0.418-5.506,0.856-8.202,1.285
				c-9.007,1.453-16.138,5.78-21.17,12.865c-8.208,11.529-8.644,27.589-8.067,36.789c-15.433-1.426-31.997-6.407-53.452-15.994
				l-1.111-0.511h-1.243C43.946,79.924,0,187.151,0,259.426c0,17.281,2.534,31.213,7.527,41.402
				c5.944,12.172,15.366,18.604,27.184,18.604c26.949,0,43.459-15.763,59.417-31.016c18.36-17.521,37.329-35.656,74.504-35.656
				c30.606,0,54.157,18.639,76.903,36.642c18.951,15.024,36.869,29.195,56.625,29.195c10.893,0,19.479-5.464,24.884-15.799
				c4.492-8.581,6.78-20.494,6.78-35.41C333.825,204.169,287.216,80.299,230.891,80.299z M105.195,188.389
				c-17.21,0-31.21-13.991-31.21-31.18c0-17.186,13.994-31.162,31.21-31.162c17.174,0,31.171,13.976,31.171,31.162
				C136.372,174.397,122.369,188.389,105.195,188.389z M228.776,112.083c6.672-4.23,16.087-2.102,20.285,4.5
				c2.107,3.297,2.798,7.233,1.957,11.055c-0.858,3.837-3.152,7.11-6.467,9.217c-2.354,1.501-5.08,2.294-7.86,2.294
				c-5.05,0-9.687-2.531-12.412-6.789C219.944,125.53,221.962,116.437,228.776,112.083z M199.203,158.65
				c-4.348-6.845-2.33-15.94,4.479-20.275c6.659-4.249,16.081-2.126,20.278,4.488c2.107,3.309,2.811,7.245,1.958,11.082
				c-0.847,3.825-3.141,7.095-6.443,9.199c-2.378,1.498-5.092,2.297-7.879,2.297C206.553,165.436,201.917,162.898,199.203,158.65z
				 M238.787,193.709c-2.354,1.495-5.086,2.3-7.879,2.3c-5.056,0-9.691-2.552-12.399-6.804c-2.107-3.303-2.805-7.229-1.951-11.061
				c0.84-3.831,3.134-7.098,6.437-9.211c6.653-4.24,16.062-2.126,20.296,4.491C247.626,180.271,245.608,189.361,238.787,193.709z
				 M270.324,158.206c-0.853,3.825-3.141,7.095-6.455,9.211c-2.36,1.504-5.086,2.309-7.879,2.309c-5.05,0-9.673-2.549-12.399-6.803
				c-2.114-3.309-2.805-7.233-1.958-11.07c0.853-3.822,3.146-7.101,6.462-9.218c6.652-4.221,16.038-2.113,20.271,4.504
				C270.486,150.447,271.177,154.381,270.324,158.206z"/>
		</g>
	</g>
</g>
<g>
</g>
<g>
</g>
<g>
</g>
<g>
</g>
<g>
</g>
<g>
</g>
<g>
</g>
<g>
</g>
<g>
</g>
<g>
</g>
<g>
</g>
<g>
</g>
<g>
</g>
<g>
</g>
<g>
</g>
</svg>
